<svg width="179" height="111" viewBox="0 0 179 111" fill="none" xmlns="http://www.w3.org/2000/svg">
<path d="M25.973 110.576L0 0.0968018H9.88523C18.3426 0.780293 22.7748 4.16747 25.0038 12.5015C27.2328 20.8355 40.7039 76.2693 40.7039 76.2693L60.1836 51.3631L49.4261 24.6154H60.6682C67.9972 25.1829 70.9387 27.4767 74.6238 34.2097L87.6103 64.8338L103.02 37.117L113.196 53.4951L81.117 102.726L68.809 72.6836L47.294 101.66C43.3058 107.472 38.9594 110.576 32.8539 110.576H25.973Z" fill="black"/>
<path d="M116.297 48.5527L85.2842 0H99.7243C107.646 0.544318 110.159 3.26593 114.552 8.23749L128.411 30.0426L116.297 48.5527Z" fill="#BBB5FF"/>
<path d="M163.591 0H177.74L111.645 103.017C107.843 108.573 104.759 109.914 98.3676 110.673H82.086L148.278 8.23749C152.759 2.76685 155.705 0.350309 163.591 0Z" fill="#BBB5FF"/>
<path d="M133.45 78.2077L145.855 59.1161L179 110.77H162.815C155.995 109.872 153.122 107.841 149.151 102.436L133.45 78.2077Z" fill="#BBB5FF"/>
<path d="M122.015 4.07029L119.592 6.97764L131.416 24.9063L133.645 21.2236L145.662 0H131.997C127.28 0.299191 125.201 1.3632 122.015 4.07029Z" fill="black"/>
</svg>
