<svg width="179" height="112" viewBox="0 0 179 112" fill="none" xmlns="http://www.w3.org/2000/svg">
<path d="M25.9729 111.579L0 1.09753H9.88523C18.3426 1.78104 22.7748 5.1683 25.0038 13.5025C27.2328 21.8367 40.7039 77.2719 40.7039 77.2719L60.1836 52.365L49.4261 25.6168H60.6682C67.9972 26.1842 70.9387 28.4781 74.6238 35.2113L87.6102 65.8361L103.02 38.1187L113.196 54.4971L81.117 103.729L68.8089 73.6861L47.294 102.663C43.3058 108.475 38.9594 111.579 32.8538 111.579H25.9729Z" fill="#641AEC"/>
<path d="M116.297 49.5546L85.2842 1.00073H99.7244C107.646 1.54506 110.159 4.26675 114.552 9.23842L128.411 31.0441L116.297 49.5546Z" fill="#9A92ED"/>
<path d="M163.591 1.00073H177.74L111.645 104.02C107.843 109.576 104.76 110.917 98.3676 111.677H82.0861L148.278 9.23842C152.759 3.76765 155.705 1.35105 163.591 1.00073Z" fill="#9A92ED"/>
<path d="M133.45 79.2103L145.855 60.1183L179 111.773H162.815C155.995 110.875 153.122 108.845 149.151 103.439L133.45 79.2103Z" fill="#9A92ED"/>
<path d="M122.015 5.07112L119.592 7.97854L131.416 25.9076L133.645 22.2249L145.662 1.00073H131.997C127.28 1.29993 125.201 2.36397 122.015 5.07112Z" fill="#641AEC" stroke="#641AEC"/>
</svg>



